<svg width="20" height="25" viewBox="0 0 20 25" fill="none" xmlns="http://www.w3.org/2000/svg">
<path d="M10.929 7.98787H1V3.21135C1 1.99511 1.99511 1 3.21135 1H16.4794C17.6957 1 18.6908 1.99511 18.6908 3.21135V7.98787H15.2964" stroke="white" stroke-width="2" stroke-linecap="round" stroke-linejoin="round"/>
<path d="M1 11.9242C1 13.1183 1.64132 14.224 2.69171 14.81L5.96447 16.6564C6.66104 17.0433 7.09228 17.7843 7.09228 18.5803V20.9023C7.09228 22.1185 8.08737 23.1136 9.30361 23.1136H10.4093C11.6255 23.1136 12.6206 22.1185 12.6206 20.9023V18.5803C12.6206 17.7843 13.0518 17.0433 13.7484 16.6564L17.0212 14.81C18.0606 14.224 18.7129 13.1183 18.7129 11.9242V7.98795" stroke="white" stroke-width="2" stroke-linecap="round" stroke-linejoin="round"/>
</svg>
